<?xml version="1.0" encoding="utf-8"?>
<!-- Generator: Adobe Illustrator 19.0.0, SVG Export Plug-In . SVG Version: 6.00 Build 0)  -->
<svg version="1.1" id="LOGO" xmlns="http://www.w3.org/2000/svg" xmlns:xlink="http://www.w3.org/1999/xlink" x="0px" y="0px"
	 viewBox="0 0 297.5 83.2" style="enable-background:new 0 0 297.5 83.2;" xml:space="preserve">
<style type="text/css">
	.st0{fill:#FFFFFF;}
</style>
<g>
	<path class="st0" d="M23.9,48.2c-3.3,0-6.4-0.6-9.2-1.9s-5.3-3-7.4-5.1c-2.1-2.2-3.7-4.7-4.9-7.7c-1.2-3-1.7-6.2-1.7-9.7
		c0-3.5,0.6-6.7,1.7-9.6c1.2-2.9,2.8-5.4,4.9-7.4c2.1-2,4.5-3.6,7.4-4.7c2.8-1.1,5.9-1.7,9.2-1.7h25.9v8.3H23.9
		c-2.1,0-4.1,0.4-5.9,1.1c-1.8,0.8-3.4,1.8-4.7,3.2c-1.3,1.4-2.3,3-3.1,4.9c-0.7,1.9-1.1,4-1.1,6.2c0,2.2,0.4,4.3,1.1,6.2
		c0.7,1.9,1.8,3.6,3.1,5c1.3,1.4,2.9,2.5,4.7,3.3c1.8,0.8,3.8,1.2,5.9,1.2h20.4V27.4H22.7v-7h30v27.8H23.9z"/>
	<path class="st0" d="M104.7,48.2L92.6,34.9H74.8v-7.4h19.9c3,0,5.3-0.8,6.8-2.5c1.5-1.6,2.3-4,2.3-7.1c0-3.1-0.8-5.4-2.4-6.9
		c-1.6-1.5-3.8-2.3-6.7-2.3h-26v39.4h-8.3V0.4h34.3c2.7,0,5.1,0.4,7.3,1.2c2.1,0.8,4,2,5.5,3.5c1.5,1.5,2.6,3.3,3.4,5.5
		c0.8,2.1,1.2,4.6,1.2,7.2c0,4-0.9,7.3-2.6,10c-1.7,2.7-4.2,4.6-7.3,5.8l14.4,14.5H104.7z"/>
	<path class="st0" d="M135.2,48.2V8.8H117V0.4h44.6v8.3h-18.1v39.4H135.2z"/>
	<path class="st0" d="M181.8,48.2V16.1c0-2.4-0.6-4.2-1.7-5.4s-2.8-1.9-5-1.9h-4.6V0.4h4.6c4.8,0,8.5,1.4,11.1,4.1
		c2.6,2.7,3.9,6.6,3.9,11.5v32.1H181.8z"/>
	<path class="st0" d="M221.7,48.8c-3.5,0-6.8-0.6-9.8-1.9c-3-1.3-5.6-3.1-7.9-5.3c-2.2-2.3-4-4.9-5.2-7.9c-1.3-3-1.9-6.3-1.9-9.8
		c0-3.5,0.6-6.7,1.9-9.7c1.3-2.9,3-5.5,5.2-7.6c2.2-2.1,4.8-3.8,7.9-5c3-1.2,6.3-1.8,9.8-1.8c3.5,0,6.7,0.6,9.7,1.8s5.7,2.8,7.9,5
		c2.2,2.1,4,4.7,5.3,7.6c1.3,2.9,1.9,6.2,1.9,9.7c0,3.5-0.6,6.8-1.9,9.8c-1.3,3-3,5.7-5.3,7.9c-2.2,2.3-4.9,4-7.9,5.3
		C228.4,48.1,225.2,48.8,221.7,48.8z M238.1,24.2c0-2.3-0.4-4.4-1.1-6.4s-1.8-3.7-3.2-5.1c-1.4-1.4-3.1-2.5-5.2-3.3
		c-2-0.8-4.3-1.2-6.9-1.2c-2.6,0-5,0.4-7,1.2c-2,0.8-3.8,1.9-5.2,3.3c-1.4,1.4-2.5,3.1-3.2,5.1s-1.1,4.1-1.1,6.4
		c0,2.3,0.4,4.5,1.1,6.4s1.8,3.7,3.2,5.1c1.4,1.4,3.1,2.6,5.1,3.4c2,0.8,4.3,1.2,7,1.2c2.6,0,5-0.4,7-1.2c2-0.8,3.8-2,5.2-3.4
		c1.4-1.4,2.5-3.2,3.2-5.1S238.1,26.5,238.1,24.2z"/>
	<path class="st0" d="M252.5,48.2l32.7-39.4h-33V0.4h40.1c1.9,0,3.2,0.4,4,1.1c0.8,0.8,1.2,1.7,1.2,2.8c0,0.6-0.1,1.2-0.3,1.8
		c-0.2,0.6-0.6,1.3-1.3,2.1l-32.6,39.9H252.5z"/>
</g>
<g>
	<path class="st0" d="M13.9,77.2v-3.6h8.6c1.3,0,2.3-0.4,3.1-1.1c0.7-0.7,1.1-1.7,1.1-3c0-1.2-0.4-2.2-1.1-2.9s-1.8-1.1-3.1-1.1
		H11.2v17.7H7.4V61.7h15.1c1.2,0,2.3,0.2,3.3,0.5c1,0.4,1.8,0.9,2.5,1.5c0.7,0.7,1.2,1.5,1.5,2.4c0.4,0.9,0.5,2,0.5,3.2
		c0,1.2-0.2,2.2-0.5,3.2c-0.4,1-0.9,1.8-1.5,2.5c-0.7,0.7-1.5,1.2-2.5,1.6c-1,0.4-2.1,0.6-3.3,0.6H13.9z"/>
	<path class="st0" d="M33,83.2V61.7h3.7v21.5H33z M50.3,83.2v-9.3H39.5v-3.3h10.8v-8.9H54v21.5H50.3z"/>
	<path class="st0" d="M67.5,83.1c-1.5,0-2.9-0.3-4.1-0.8S61,81,60.1,80c-0.9-1-1.7-2.1-2.2-3.5s-0.8-2.8-0.8-4.3
		c0-1.6,0.3-3,0.8-4.3s1.2-2.4,2.2-3.3c0.9-0.9,2-1.6,3.3-2.1s2.6-0.8,4.1-0.8h5.2c1.6,0,3,0.3,4.3,0.8c1.3,0.5,2.4,1.2,3.3,2.2
		c0.9,0.9,1.6,2,2.2,3.3c0.5,1.3,0.8,2.7,0.8,4.3s-0.3,3-0.8,4.3C82,77.9,81.2,79,80.3,80c-0.9,1-2,1.7-3.3,2.3
		c-1.3,0.6-2.7,0.8-4.2,0.8H67.5z M72.8,79.4c1,0,1.9-0.2,2.7-0.5s1.5-0.8,2.1-1.5s1.1-1.4,1.4-2.2c0.3-0.9,0.5-1.8,0.5-2.8
		s-0.2-1.9-0.5-2.8c-0.3-0.9-0.8-1.6-1.4-2.2c-0.6-0.6-1.3-1.1-2.1-1.4s-1.7-0.5-2.7-0.5h-5.2c-1,0-1.9,0.2-2.7,0.5
		s-1.5,0.8-2.1,1.4c-0.6,0.6-1.1,1.3-1.4,2.2c-0.3,0.8-0.5,1.8-0.5,2.8c0,1,0.2,1.9,0.5,2.8c0.3,0.9,0.8,1.6,1.4,2.2
		c0.6,0.6,1.3,1.1,2.1,1.5s1.7,0.5,2.7,0.5H72.8z"/>
	<path class="st0" d="M92.7,83.1V65.4h-8.1v-3.7h20v3.7h-8.1v17.7H92.7z"/>
	<path class="st0" d="M116.3,83.1c-1.5,0-2.9-0.3-4.1-0.8s-2.4-1.3-3.3-2.3c-0.9-1-1.7-2.1-2.2-3.5s-0.8-2.8-0.8-4.3
		c0-1.6,0.3-3,0.8-4.3s1.2-2.4,2.2-3.3c0.9-0.9,2-1.6,3.3-2.1s2.6-0.8,4.1-0.8h5.2c1.6,0,3,0.3,4.3,0.8c1.3,0.5,2.4,1.2,3.3,2.2
		c0.9,0.9,1.6,2,2.2,3.3c0.5,1.3,0.8,2.7,0.8,4.3s-0.3,3-0.8,4.3c-0.5,1.3-1.3,2.5-2.2,3.5c-0.9,1-2,1.7-3.3,2.3
		c-1.3,0.6-2.7,0.8-4.2,0.8H116.3z M121.5,79.4c1,0,1.9-0.2,2.7-0.5s1.5-0.8,2.1-1.5s1.1-1.4,1.4-2.2c0.3-0.9,0.5-1.8,0.5-2.8
		s-0.2-1.9-0.5-2.8c-0.3-0.9-0.8-1.6-1.4-2.2c-0.6-0.6-1.3-1.1-2.1-1.4s-1.7-0.5-2.7-0.5h-5.2c-1,0-1.9,0.2-2.7,0.5
		s-1.5,0.8-2.1,1.4c-0.6,0.6-1.1,1.3-1.4,2.2c-0.3,0.8-0.5,1.8-0.5,2.8c0,1,0.2,1.9,0.5,2.8c0.3,0.9,0.8,1.6,1.4,2.2
		c0.6,0.6,1.3,1.1,2.1,1.5s1.7,0.5,2.7,0.5H121.5z"/>
	<path class="st0" d="M144.9,83.1c-1.5,0-2.9-0.3-4.1-0.8s-2.4-1.3-3.3-2.3c-0.9-1-1.7-2.1-2.2-3.5s-0.8-2.8-0.8-4.3
		c0-1.6,0.3-3,0.8-4.3s1.2-2.4,2.2-3.3c0.9-0.9,2-1.6,3.3-2.1s2.6-0.8,4.1-0.8h11.6v3.7h-11.6c-1,0-1.9,0.2-2.7,0.5
		s-1.5,0.8-2.1,1.4c-0.6,0.6-1.1,1.3-1.4,2.2c-0.3,0.8-0.5,1.8-0.5,2.8c0,1,0.2,1.9,0.5,2.8c0.3,0.9,0.8,1.6,1.4,2.2
		c0.6,0.6,1.3,1.1,2.1,1.5s1.7,0.5,2.7,0.5h9.2v-5.6h-9.7v-3.2h13.5v12.5H144.9z"/>
	<path class="st0" d="M181.2,83.1l-5.4-6h-8v-3.3h8.9c1.4,0,2.4-0.4,3.1-1.1c0.7-0.7,1-1.8,1-3.2s-0.4-2.4-1.1-3.1
		c-0.7-0.7-1.7-1-3-1H165v17.7h-3.7V61.7h15.4c1.2,0,2.3,0.2,3.3,0.5c1,0.4,1.8,0.9,2.4,1.6c0.7,0.7,1.2,1.5,1.5,2.5
		c0.4,1,0.5,2,0.5,3.2c0,1.8-0.4,3.3-1.2,4.5c-0.8,1.2-1.9,2.1-3.3,2.6l6.5,6.5H181.2z"/>
	<path class="st0" d="M210.8,83.1l-3.2-5.4h-10.1l1.8-3h6.6l-4.8-8l-9.7,16.5H187l12.3-20.5c0.2-0.4,0.5-0.7,0.8-0.9
		c0.3-0.2,0.6-0.3,1.1-0.3s0.8,0.1,1,0.3c0.3,0.2,0.5,0.5,0.8,0.9l12.4,20.5H210.8z"/>
	<path class="st0" d="M224.1,77.2v-3.6h8.6c1.3,0,2.3-0.4,3.1-1.1c0.7-0.7,1.1-1.7,1.1-3c0-1.2-0.4-2.2-1.1-2.9s-1.8-1.1-3.1-1.1
		h-11.4v17.7h-3.7V61.7h15.1c1.2,0,2.3,0.2,3.3,0.5c1,0.4,1.8,0.9,2.5,1.5c0.7,0.7,1.2,1.5,1.5,2.4c0.4,0.9,0.5,2,0.5,3.2
		c0,1.2-0.2,2.2-0.5,3.2c-0.4,1-0.9,1.8-1.5,2.5c-0.7,0.7-1.5,1.2-2.5,1.6c-1,0.4-2.1,0.6-3.3,0.6H224.1z"/>
	<path class="st0" d="M243.2,83.2V61.7h3.7v21.5H243.2z M260.5,83.2v-9.3h-10.8v-3.3h10.8v-8.9h3.7v21.5H260.5z"/>
	<path class="st0" d="M277.8,83.1V75l-11.4-13.3h5l8.3,9.9l8.4-9.9h4.8L281.6,75v8.1H277.8z"/>
</g>
</svg>
